<?xml version="1.0" encoding="utf-8"?>
<!-- Generator: Adobe Illustrator 23.0.0, SVG Export Plug-In . SVG Version: 6.00 Build 0)  -->
<svg version="1.1" id="Capa_1" xmlns="http://www.w3.org/2000/svg" xmlns:xlink="http://www.w3.org/1999/xlink" x="0px" y="0px"
	 viewBox="0 0 700 800" style="enable-background:new 0 0 700 800;" xml:space="preserve">
<style type="text/css">
	.st0{fill:#AE2C5B;}
	.st1{fill:none;stroke:#AE2C5B;stroke-width:2;stroke-miterlimit:10;}
	
		.st2{fill:none;stroke:#AE2C5B;stroke-width:2;stroke-linecap:round;stroke-linejoin:bevel;stroke-miterlimit:10;stroke-dasharray:12;}
	.st3{opacity:0.5;}
	.st4{fill:none;stroke:#0080BA;stroke-width:2;stroke-linecap:round;stroke-miterlimit:10;}
	.st5{fill:#F49C0F;enable-background:new    ;}
	.st6{fill:#94A5A4;enable-background:new    ;}
	.st7{fill:#C3718E;}
	.st8{fill:#2681B9;enable-background:new    ;}
	.st9{fill:#EDEABF;}
	.st10{fill:#D25400;enable-background:new    ;}
	.st11{fill:#0080BA;}
	.st12{fill:#BFC3C6;enable-background:new    ;}
	.st13{fill:#96305A;stroke:#96305A;stroke-width:2;stroke-miterlimit:10;}
	.st14{fill:#96305A;stroke:#96305A;stroke-miterlimit:10;}
	.st15{fill:#2B3D51;enable-background:new    ;}
	.st16{fill:#E77F23;enable-background:new    ;}
	.st17{fill:#2B3D51;}
	.st18{fill:#C2382B;enable-background:new    ;}
	.st19{fill:#7F8C8C;enable-background:new    ;}
</style>
<g>
	<g>
		<path class="st0" d="M360,358.2v132.9h-15.1c-6.6,0-12.6-2.6-17.4-7.4l-23.9-23.9c-4.6-4.6-7.4-11.4-7.4-18.1v-34
			c0-6.7,2.8-13.5,7.4-18.1l23.9-23.9c4.8-4.8,10.9-7.4,17.4-7.4H360 M362,356.2h-17.1c-7.2,0-13.8,2.9-18.8,8l-23.9,23.9
			c-5.1,5.1-8,12.3-8,19.6v34c0,7.2,2.9,14.5,8,19.6l23.9,23.9c5.1,5.1,11.6,8,18.8,8H362V356.2L362,356.2z"/>
	</g>
	<g>
		<path class="st0" d="M360,221.3v64.8h-42.6c-7.6,0-14.6,3-20.2,8.6l-0.2,0.2v-73.6H360 M362,219.3h-67.1v80.4l3.6-3.6
			c5.1-5.1,11.6-8,18.8-8H362V219.3L362,219.3z"/>
	</g>
	<g>
		<path class="st0" d="M225.6,276.3V383v1.4v86.2c0,7.9,3.1,15.5,8.5,21l63,64.5c5.6,5.6,12.6,8.6,20.2,8.6H360V628h-70.9
			c-6.6,0-12.6-2.6-17.4-7.4L169.6,517c-4.6-4.6-7.4-11.4-7.4-18.1V351.1c0-6.7,2.8-13.5,7.4-18.1L225.6,276.3 M227.6,271.5
			l-59.4,60.1c-5.1,5.1-8,12.3-8,19.6v147.7c0,7.2,2.9,14.5,8,19.6L270.3,622c5.1,5.1,11.6,8,18.8,8H362v-67.4h-44.6
			c-7.2,0-13.8-2.9-18.8-8l-63-64.5c-5.1-5.1-8-12.3-8-19.6v-86.2c0-0.7,0-0.7,0-1.4V271.5L227.6,271.5z"/>
	</g>
	<line class="st1" x1="226.7" y1="287.2" x2="161.5" y2="351.4"/>
	<line class="st1" x1="226.7" y1="298" x2="161.5" y2="362.2"/>
	<line class="st1" x1="342.8" y1="357.1" x2="296.2" y2="403"/>
	<line class="st1" x1="353.5" y1="357.4" x2="295" y2="415"/>
	<line class="st1" x1="360.5" y1="361.3" x2="295.3" y2="425.5"/>
	<line class="st1" x1="360.9" y1="371.8" x2="295" y2="436.7"/>
	<line class="st1" x1="361.1" y1="382.5" x2="296.1" y2="446.5"/>
	<line class="st1" x1="361.1" y1="393.3" x2="299.1" y2="454.4"/>
	<line class="st1" x1="361" y1="404.2" x2="304" y2="460.4"/>
	<line class="st1" x1="360.9" y1="415.4" x2="309.2" y2="466.2"/>
	<line class="st1" x1="361.3" y1="425.8" x2="314.3" y2="472.1"/>
	<line class="st1" x1="361.2" y1="436.4" x2="319.8" y2="477.1"/>
	<line class="st1" x1="361" y1="447.3" x2="324.8" y2="482.9"/>
	<line class="st1" x1="360.7" y1="458.6" x2="331" y2="487.9"/>
	<line class="st1" x1="360.9" y1="469.2" x2="338.7" y2="491.1"/>
	<line class="st1" x1="360.8" y1="480.2" x2="348.4" y2="492.4"/>
	<line class="st1" x1="226.7" y1="308.7" x2="161.5" y2="372.9"/>
	<line class="st1" x1="226.7" y1="319.5" x2="161.5" y2="383.7"/>
	<line class="st1" x1="226.7" y1="330.2" x2="161.5" y2="394.5"/>
	<line class="st1" x1="226.7" y1="341" x2="161.5" y2="405.2"/>
	<line class="st1" x1="226.7" y1="352.4" x2="161.5" y2="416.6"/>
	<line class="st1" x1="226.7" y1="363.2" x2="161.5" y2="427.4"/>
	<line class="st1" x1="226.7" y1="373.9" x2="161.5" y2="438.1"/>
	<line class="st1" x1="226.7" y1="384.7" x2="161.5" y2="448.9"/>
	<line class="st1" x1="226.7" y1="395.4" x2="161.5" y2="459.7"/>
	<line class="st1" x1="226.7" y1="406.2" x2="161.5" y2="470.4"/>
	<line class="st1" x1="226.7" y1="417.6" x2="161.5" y2="481.8"/>
	<line class="st1" x1="226.7" y1="428.4" x2="161.5" y2="492.6"/>
	<line class="st1" x1="226.7" y1="439.1" x2="161.5" y2="503.3"/>
	<line class="st1" x1="226.7" y1="449.9" x2="164.6" y2="511"/>
	<line class="st1" x1="226.8" y1="460.5" x2="168.6" y2="517.8"/>
	<line class="st1" x1="226.6" y1="470.8" x2="173.8" y2="522.8"/>
	<line class="st1" x1="228.5" y1="480.5" x2="179.7" y2="528.6"/>
	<line class="st1" x1="232.2" y1="487.9" x2="185.1" y2="534.3"/>
	<line class="st1" x1="237.1" y1="493.3" x2="190.2" y2="539.4"/>
	<line class="st1" x1="242.6" y1="499.2" x2="196" y2="545.1"/>
	<line class="st1" x1="248.2" y1="504.5" x2="201.4" y2="550.6"/>
	<line class="st1" x1="253.6" y1="510.1" x2="206.7" y2="556.2"/>
	<line class="st1" x1="259.1" y1="515.6" x2="212.3" y2="561.7"/>
	<line class="st1" x1="264.6" y1="521" x2="217.7" y2="567.2"/>
	<line class="st1" x1="270.2" y1="526.2" x2="223.4" y2="572.3"/>
	<line class="st1" x1="275.2" y1="532" x2="228.3" y2="578.2"/>
	<line class="st1" x1="280.7" y1="537.1" x2="233.9" y2="583.3"/>
	<line class="st1" x1="286.2" y1="543.2" x2="239.3" y2="589.3"/>
	<line class="st1" x1="291.6" y1="548.6" x2="244.7" y2="594.7"/>
	<line class="st1" x1="297" y1="554" x2="250.2" y2="600.2"/>
	<line class="st1" x1="302.3" y1="559.3" x2="255.5" y2="605.5"/>
	<line class="st1" x1="309.8" y1="562.8" x2="261.1" y2="610.7"/>
	<line class="st1" x1="320.3" y1="563.8" x2="266.9" y2="616.4"/>
	<line class="st1" x1="331.3" y1="563.8" x2="272.3" y2="621.9"/>
	<line class="st1" x1="305.6" y1="220.3" x2="295.8" y2="229.9"/>
	<line class="st1" x1="316.2" y1="220.4" x2="296.3" y2="240"/>
	<line class="st1" x1="327.7" y1="220.3" x2="295.9" y2="251.6"/>
	<line class="st1" x1="338.7" y1="220.2" x2="296" y2="262.2"/>
	<line class="st1" x1="349.6" y1="220.4" x2="295.9" y2="273.3"/>
	<line class="st1" x1="360.4" y1="220.4" x2="295.8" y2="284"/>
	<line class="st1" x1="360.8" y1="231.1" x2="295.8" y2="295.1"/>
	<line class="st1" x1="360.9" y1="241.6" x2="314.8" y2="287"/>
	<line class="st1" x1="361.2" y1="252" x2="325.6" y2="287"/>
	<line class="st1" x1="360.8" y1="263.3" x2="336.6" y2="287.2"/>
	<line class="st1" x1="360.9" y1="274.1" x2="347.5" y2="287.3"/>
	<line class="st1" x1="342" y1="563.8" x2="278.4" y2="626.5"/>
	<line class="st1" x1="353" y1="563.4" x2="286.6" y2="628.9"/>
	<line class="st1" x1="361" y1="566.7" x2="297.9" y2="628.9"/>
	<line class="st1" x1="360.9" y1="578" x2="309.2" y2="628.9"/>
	<line class="st1" x1="360.7" y1="588.8" x2="319.8" y2="629.1"/>
	<line class="st1" x1="361.3" y1="599.1" x2="331" y2="628.9"/>
	<line class="st1" x1="361.2" y1="610" x2="341.8" y2="629"/>
	<line class="st1" x1="361" y1="621" x2="353" y2="628.9"/>
</g>
<g>
	<path class="st2" d="M361.1,493.1h16.1c7.2,0,13.8-2.9,18.8-8l23.9-23.9c5.1-5.1,8-12.3,8-19.6v-34c0-7.2-2.9-14.5-8-19.6
		L396,364.2c-5.1-5.1-11.6-8-18.8-8h-15.9H361"/>
	<path class="st2" d="M361.1,630H433c7.2,0,13.8-2.9,18.8-8l102.1-104.3c5.1-5.1,8-12.3,8-19.6V350.4c0.7-7.2-2.2-13.8-7.2-18.8
		L452.5,227.3c-5.1-5.1-11.6-8-18.8-8h-72.6"/>
	<path class="st2" d="M361,288.1h0.1h44.3c7.2,0,13.8,2.9,18.8,8l63,64.5c5.1,5.1,8,12.3,8,19.6v90.5c0,7.2-2.9,14.5-8,19.6
		l-63,64.5c-5.1,5.1-11.6,8-18.8,8h-44.4H361"/>
</g>
<g class="st3">
	<line class="st4" x1="84" y1="669" x2="601" y2="669"/>
	<line class="st4" x1="203" y1="630" x2="601" y2="630"/>
	<line class="st4" x1="362.3" y1="424.3" x2="452" y2="645"/>
	<line class="st4" x1="123" y1="180" x2="123" y2="708"/>
	<line class="st4" x1="362.3" y1="424.3" x2="601" y2="523"/>
	<line class="st4" x1="362.3" y1="424.3" x2="601" y2="321"/>
	<line class="st4" x1="362.3" y1="424.3" x2="461" y2="180"/>
</g>
<g>
	
		<rect x="470.2" y="192.6" transform="matrix(0.9656 -0.2599 0.2599 0.9656 -33.8703 141.9925)" class="st5" width="99.6" height="12.9"/>
	
		<rect x="567.7" y="177.3" transform="matrix(0.9656 -0.2599 0.2599 0.9656 -27.9362 156.2489)" class="st6" width="18.2" height="12.9"/>
	<path class="st7" d="M598.6,184.6l-11.4,3.1l-3.4-12.5l11.4-3.1c3.4-0.9,7,1.1,7.9,4.6v0C604.1,180.1,602.1,183.6,598.6,184.6z"/>
	<path class="st8" d="M450.2,217.8l4.2,0.1c-0.2-0.7-0.4-1.5-0.6-2.2L450.2,217.8z"/>
	<path class="st9" d="M470.2,205.8l-16.4,9.9c0.2,0.7,0.4,1.5,0.6,2.2l19.2,0.3L470.2,205.8z"/>
</g>
<g>
	<path class="st10" d="M319,162.4l146.4-69l-44.8,110.3L319,162.4 M253.5,165.5l177.7,72.2L509.6,45L253.5,165.5L253.5,165.5z"/>
	<g>
		<g>
			
				<rect x="425.4" y="229" transform="matrix(0.3765 -0.9264 0.9264 0.3765 48.9595 541.459)" class="st11" width="2.8" height="10.8"/>
		</g>
		<g>
			
				<rect x="430.1" y="226" transform="matrix(0.3765 -0.9264 0.9264 0.3765 56.9414 542.5206)" class="st11" width="2.8" height="6"/>
		</g>
		<g>
			
				<rect x="432.7" y="219.7" transform="matrix(0.3765 -0.9264 0.9264 0.3765 64.3753 540.9644)" class="st11" width="2.8" height="6"/>
		</g>
		<g>
			
				<rect x="435.3" y="213.4" transform="matrix(0.3765 -0.9264 0.9264 0.3765 71.8091 539.4081)" class="st11" width="2.8" height="6"/>
		</g>
		<g>
			
				<rect x="437.8" y="207.1" transform="matrix(0.3765 -0.9264 0.9264 0.3765 79.243 537.8519)" class="st11" width="2.8" height="6"/>
		</g>
		<g>
			
				<rect x="438.2" y="197.5" transform="matrix(0.3765 -0.9264 0.9264 0.3765 86.1288 533.6777)" class="st11" width="2.8" height="10.8"/>
		</g>
		<g>
			
				<rect x="442.9" y="194.5" transform="matrix(0.3765 -0.9264 0.9264 0.3765 94.1107 534.7393)" class="st11" width="2.8" height="6"/>
		</g>
		<g>
			
				<rect x="445.5" y="188.2" transform="matrix(0.3765 -0.9264 0.9264 0.3765 101.5446 533.1831)" class="st11" width="2.8" height="6"/>
		</g>
		<g>
			
				<rect x="448.1" y="181.9" transform="matrix(0.3765 -0.9264 0.9264 0.3765 108.9785 531.6268)" class="st11" width="2.8" height="6"/>
		</g>
		<g>
			
				<rect x="450.6" y="175.6" transform="matrix(0.3765 -0.9264 0.9264 0.3765 116.4124 530.0706)" class="st11" width="2.8" height="6"/>
		</g>
		<g>
			
				<rect x="451" y="166" transform="matrix(0.3765 -0.9264 0.9264 0.3765 123.2982 525.8964)" class="st11" width="2.8" height="10.8"/>
		</g>
		<g>
			
				<rect x="455.8" y="163" transform="matrix(0.3765 -0.9264 0.9264 0.3765 131.2801 526.9581)" class="st11" width="2.8" height="6"/>
		</g>
		<g>
			
				<rect x="458.3" y="156.7" transform="matrix(0.3765 -0.9264 0.9264 0.3765 138.714 525.4018)" class="st11" width="2.8" height="6"/>
		</g>
		<g>
			
				<rect x="460.9" y="150.4" transform="matrix(0.3765 -0.9264 0.9264 0.3765 146.1479 523.8456)" class="st11" width="2.8" height="6"/>
		</g>
		<g>
			
				<rect x="463.4" y="144.1" transform="matrix(0.3765 -0.9264 0.9264 0.3765 153.5817 522.2893)" class="st11" width="2.8" height="6"/>
		</g>
		<g>
			
				<rect x="463.8" y="134.5" transform="matrix(0.3765 -0.9264 0.9264 0.3765 160.4676 518.1152)" class="st11" width="2.8" height="10.8"/>
		</g>
		<g>
			
				<rect x="468.6" y="131.5" transform="matrix(0.3765 -0.9264 0.9264 0.3765 168.4495 519.1768)" class="st11" width="2.8" height="6"/>
		</g>
		<g>
			
				<rect x="471.1" y="125.2" transform="matrix(0.3765 -0.9264 0.9264 0.3765 175.8834 517.6205)" class="st11" width="2.8" height="6"/>
		</g>
		<g>
			
				<rect x="473.7" y="118.9" transform="matrix(0.3765 -0.9264 0.9264 0.3765 183.3172 516.0643)" class="st11" width="2.8" height="6"/>
		</g>
		<g>
			
				<rect x="476.2" y="112.6" transform="matrix(0.3765 -0.9264 0.9264 0.3765 190.7511 514.5081)" class="st11" width="2.8" height="6"/>
		</g>
		<g>
			
				<rect x="476.6" y="103" transform="matrix(0.3765 -0.9264 0.9264 0.3765 197.6369 510.3339)" class="st11" width="2.8" height="10.8"/>
		</g>
		<g>
			
				<rect x="481.4" y="100" transform="matrix(0.3765 -0.9264 0.9264 0.3765 205.6189 511.3955)" class="st11" width="2.8" height="6"/>
		</g>
		<g>
			
				<rect x="483.9" y="93.7" transform="matrix(0.3765 -0.9264 0.9264 0.3765 213.0527 509.8393)" class="st11" width="2.8" height="6"/>
		</g>
		<g>
			
				<rect x="486.5" y="87.4" transform="matrix(0.3765 -0.9264 0.9264 0.3765 220.4866 508.283)" class="st11" width="2.8" height="6"/>
		</g>
		<g>
			
				<rect x="489" y="81.1" transform="matrix(0.3765 -0.9264 0.9264 0.3765 227.9205 506.7268)" class="st11" width="2.8" height="6"/>
		</g>
		<g>
			
				<rect x="489.4" y="71.5" transform="matrix(0.3765 -0.9264 0.9264 0.3765 234.8063 502.5526)" class="st11" width="2.8" height="10.8"/>
		</g>
		<g>
			
				<rect x="494.2" y="68.5" transform="matrix(0.3765 -0.9264 0.9264 0.3765 242.7882 503.6143)" class="st11" width="2.8" height="6"/>
		</g>
		<g>
			
				<rect x="496.7" y="62.1" transform="matrix(0.3765 -0.9264 0.9264 0.3765 250.2221 502.058)" class="st11" width="2.8" height="6"/>
		</g>
		<g>
			
				<rect x="499.3" y="55.8" transform="matrix(0.3765 -0.9264 0.9264 0.3765 257.656 500.5018)" class="st11" width="2.8" height="6"/>
		</g>
		<g>
			
				<rect x="501.8" y="49.5" transform="matrix(0.3765 -0.9264 0.9264 0.3765 265.0898 498.9455)" class="st11" width="2.8" height="6"/>
		</g>
	</g>
</g>
<g>
	<polygon class="st12" points="216,341.3 189.7,344.3 174.6,365.8 183.7,377 207.7,366.4 	"/>
	<g>
		<line class="st13" x1="214.5" y1="342.5" x2="196" y2="357.6"/>
		<g>
			<polygon class="st14" points="213.9,341.9 215.4,341.8 215,343.1 			"/>
		</g>
		<g>
			<path class="st14" d="M193.5,354.5c-1.7,1.4-1.9,3.8-0.6,5.5s3.8,1.9,5.5,0.6c1.7-1.4,1.9-3.8,0.6-5.5
				C197.7,353.4,195.2,353.2,193.5,354.5z"/>
		</g>
	</g>
	
		<rect x="169.2" y="370.1" transform="matrix(0.6326 0.7744 -0.7744 0.6326 354.1328 0.6533)" class="st15" width="14.4" height="7"/>
	
		<rect x="148.9" y="367.5" transform="matrix(0.6326 0.7744 -0.7744 0.6326 359.5031 22.4057)" class="st16" width="14.4" height="45.2"/>
	<path class="st15" d="M141.9,416l-14-17.1l1.7-1.4c1.1-0.9,2.7-0.7,3.6,0.4L144,411c0.9,1.1,0.7,2.7-0.4,3.6L141.9,416z"/>
	<path class="st16" d="M38.1,493l-6.4-7.8c-2.1-2.6-1.7-6.4,0.9-8.5l95.3-77.9l14,17.1l-95.3,77.9C44,496,40.2,495.6,38.1,493z"/>
	
		<rect x="42.4" y="471.7" transform="matrix(0.6326 0.7744 -0.7744 0.6326 386.7549 132.7915)" class="st15" width="22.1" height="4.7"/>
	
		<rect x="58.4" y="485.5" transform="matrix(0.6326 0.7744 -0.7744 0.6326 400.4175 129.4185)" class="st15" width="10.7" height="2.6"/>
	
		<rect x="63.7" y="477" transform="matrix(0.8725 -0.4885 0.4885 0.8725 -221.9031 105.1517)" class="st15" width="53.7" height="1.7"/>
	
		<rect x="104.5" y="463.8" transform="matrix(0.8725 -0.4885 0.4885 0.8725 -213.3573 112.5533)" class="st15" width="9.1" height="2.7"/>
	<circle class="st17" cx="67.2" cy="490.9" r="2.9"/>
</g>
<g>
	<polygon class="st12" points="653,406.1 653,376.3 623.2,359.2 623.2,406.1 	"/>
	
		<rect x="568.1" y="466.6" transform="matrix(-1.836970e-16 1 -1 -1.836970e-16 1128.2567 -147.9903)" class="st18" width="140.1" height="47"/>
	<polygon class="st19" points="620.1,420.1 620.1,399.5 638.1,389.6 656.2,399.5 656.2,420.1 	"/>
	<path class="st15" d="M614.6,569v-11h47v11c0,12.2-9.9,22.2-22.2,22.2h-2.7C624.5,591.2,614.6,581.3,614.6,569z"/>
	<path class="st12" d="M628.7,565.7V411.6h18.8v154.1c0,4.9-4,8.9-8.9,8.9h-1.1C632.7,574.6,628.7,570.6,628.7,565.7z"/>
	
		<rect x="625.7" y="474.9" transform="matrix(-1.836970e-16 1 -1 -1.836970e-16 1128.2567 -147.9903)" class="st15" width="24.9" height="30.6"/>
</g>
</svg>
