<?xml version="1.0" encoding="utf-8"?>
<!-- Generator: Adobe Illustrator 23.0.0, SVG Export Plug-In . SVG Version: 6.00 Build 0)  -->
<svg version="1.1" id="Capa_1" xmlns="http://www.w3.org/2000/svg" xmlns:xlink="http://www.w3.org/1999/xlink" x="0px" y="0px"
	 viewBox="0 0 2000 2000" style="enable-background:new 0 0 2000 2000;" xml:space="preserve">
<style type="text/css">
	.st0{fill:#96305A;}
</style>
<g>
	<path class="st0" d="M867.3,1219.8c18.7,18.6,44.1,29.1,70.6,29.1l124.2,0.1c26.6,0,52.1-10.5,70.8-29.2l87.8-87.5
		c18.7-18.7,29.2-43.9,29.2-70.3l0.1-123.7c0-26.5-10.5-51.8-29.3-70.5l-87.9-87.4c-18.7-18.6-44.1-29.1-70.6-29.1L938,751
		c-26.6,0-52.1,10.5-70.8,29.2l-87.8,87.5c-18.7,18.7-29.2,43.9-29.2,70.3l-0.1,123.7c0,26.5,10.5,51.8,29.3,70.5L867.3,1219.8z"/>
	<path class="st0" d="M1720.7,661.4l-380.9-378.9c-18.7-18.6-44.1-29.1-70.6-29.1L750,253v291.8l13.6-13.5
		c18.8-18.7,44.3-29.2,70.8-29.2l331.3,0.2c26.5,0,51.9,10.5,70.6,29.1l234.4,233.2c18.8,18.7,29.4,44.1,29.3,70.5l-0.2,330
		c0,26.4-10.5,51.7-29.2,70.3l-234.1,233.5c-18.8,18.7-44.3,29.2-70.8,29.2l-331.3-0.2c-26.5,0-51.9-10.5-70.6-29.1l-234.4-233.2
		c-18.8-18.7-29.4-44.1-29.3-70.5l0.2-312.9c-0.2-1.6-0.2-3.2-0.2-4.8V441.8L279.6,661.6c-18.7,18.7-29.2,43.9-29.2,70.3l-0.4,536.2
		c0,26.5,10.5,51.8,29.3,70.5l380.9,378.9c18.7,18.6,44.1,29.1,70.6,29.1l538.3,0.4c26.6,0,52.1-10.5,70.8-29.2l380.4-379.4
		c18.7-18.7,29.2-43.9,29.2-70.3l0.4-536.2C1750.1,705.4,1739.5,680.1,1720.7,661.4z"/>
</g>
</svg>
