<?xml version="1.0" encoding="utf-8"?>
<!-- Generator: Adobe Illustrator 23.0.0, SVG Export Plug-In . SVG Version: 6.00 Build 0)  -->
<svg version="1.1" id="Capa_1" xmlns="http://www.w3.org/2000/svg" xmlns:xlink="http://www.w3.org/1999/xlink" x="0px" y="0px"
	 viewBox="0 0 700 800" style="enable-background:new 0 0 700 800;" xml:space="preserve">
<style type="text/css">
	.st0{fill:#2D3E50;}
	.st1{fill:#34495E;}
	.st2{fill:#FFFFFF;}
	.st3{fill:#3598DB;}
	.st4{fill:#0081BE;}
	.st5{fill:#BAC5C8;}
	.st6{fill:#003950;}
	.st7{fill:#FF9E00;}
	.st8{fill:#708E8F;}
	.st9{fill:#297FB8;}
	.st10{fill:none;stroke:#297FB8;stroke-width:9;stroke-linecap:round;stroke-linejoin:round;stroke-miterlimit:10;}
</style>
<g>
	<g>
		<rect x="300.1" y="446.7" class="st0" width="101.7" height="77.4"/>
		<path class="st0" d="M468.6,554.5H234c-5.3,0-9.6-4.3-9.6-9.6v-2.8c0-5.3,4.3-9.6,9.6-9.6h234.6c5.3,0,9.6,4.3,9.6,9.6v2.8
			C478.2,550.2,473.9,554.5,468.6,554.5z"/>
		<path class="st1" d="M495.5,473.3H204.5c-22.1,0-40-17.9-40-40V285.5c0-22.1,17.9-40,40-40h291.1c22.1,0,40,17.9,40,40v147.8
			C535.5,455.4,517.6,473.3,495.5,473.3z"/>
		<g>
			<path class="st2" d="M491.7,448.6H208.3c-8.8,0-16-7.2-16-16V285.3c0-8.4,6.8-15.1,15.1-15.1h285.2c8.4,0,15.1,6.8,15.1,15.1
				v147.3C507.7,441.5,500.6,448.6,491.7,448.6z"/>
		</g>
	</g>
</g>
<g>
	<path class="st3" d="M358.4,385.6c0-7.2,4.5-13.4,10.8-16c-1.7-4.6-4.1-8.9-7-12.6c-2.9,2.1-6.4,3.4-10.3,3.4
		c-9.5,0-17.2-7.7-17.2-17.2c0-1.1,0.1-2.2,0.3-3.3c-3.1-0.7-6.4-1-9.7-1c-3.1,0-6.1,0.3-9.1,0.9c0.2,1.1,0.3,2.3,0.3,3.4
		c0,9.5-7.7,17.2-17.2,17.2c-4,0-7.8-1.4-10.7-3.7c-3,3.8-5.5,8.2-7.2,12.8c6.5,2.5,11.1,8.8,11.1,16.1c0,7.3-4.6,13.6-11.1,16.1
		c1.7,4.7,4.2,9,7.2,12.8c2.9-2.3,6.7-3.7,10.7-3.7c9.5,0,17.2,7.7,17.2,17.2c0,1.2-0.1,2.3-0.3,3.4c2.9,0.6,6,0.9,9.1,0.9
		c3.5,0,6.9-0.4,10.1-1.1c-0.5-1.6-0.8-3.3-0.8-5.1c0-9.5,7.7-17.2,17.2-17.2c4.3,0,8.2,1.6,11.2,4.2c2.5-3.5,4.6-7.3,6.1-11.5
		C362.9,399,358.4,392.8,358.4,385.6z M325.3,402.8c-9.5,0-17.2-7.7-17.2-17.2c0-9.5,7.7-17.2,17.2-17.2s17.2,7.7,17.2,17.2
		C342.5,395.1,334.8,402.8,325.3,402.8z"/>
	<path class="st4" d="M409.5,325.5c0-6,3.7-11.2,9-13.3c-1.4-3.8-3.4-7.4-5.8-10.6c-2.4,1.8-5.4,2.9-8.6,2.9
		c-7.9,0-14.4-6.4-14.4-14.3c0-0.9,0.1-1.9,0.3-2.7c-2.6-0.5-5.3-0.8-8.1-0.8c-2.6,0-5.1,0.3-7.6,0.7c0.2,0.9,0.3,1.9,0.3,2.9
		c0,7.9-6.4,14.3-14.4,14.3c-3.4,0-6.5-1.2-8.9-3.1c-2.5,3.2-4.6,6.8-6,10.7c5.4,2.1,9.2,7.3,9.2,13.4c0,6.1-3.8,11.4-9.2,13.4
		c1.4,3.9,3.5,7.5,6,10.7c2.4-1.9,5.6-3.1,8.9-3.1c7.9,0,14.4,6.4,14.4,14.4c0,1-0.1,1.9-0.3,2.8c2.4,0.5,5,0.7,7.6,0.7
		c2.9,0,5.7-0.3,8.5-0.9c-0.4-1.3-0.6-2.8-0.6-4.3c0-7.9,6.4-14.4,14.4-14.4c3.6,0,6.8,1.3,9.4,3.5c2.1-2.9,3.8-6.1,5.1-9.6
		C413.2,336.8,409.5,331.6,409.5,325.5z M381.9,339.9c-7.9,0-14.4-6.4-14.4-14.4c0-7.9,6.4-14.4,14.4-14.4c7.9,0,14.4,6.4,14.4,14.4
		C396.3,333.5,389.8,339.9,381.9,339.9z"/>
</g>
<g>
	<polygon class="st5" points="512.6,295.4 503,300.8 486.1,302.6 483.4,294.9 497.9,286.2 508.8,284.6 572.8,262.2 576.6,273.1 	"/>
	<polygon class="st6" points="572.6,284.6 564.2,287.5 554.1,258.6 562.4,255.8 	"/>
	<path class="st7" d="M621.2,266c-7.6-0.3-16,1-24.4,3.9c-9.8,3.4-18.1,8.6-24.3,14.7l-10.2-28.8c8.6,0.9,18.4-0.2,28.3-3.6
		c8.2-2.9,15.4-7,21.1-11.8c0.7-0.5,1.3-1.1,1.9-1.6c1.2-0.9,2.4-1.6,3.8-2.2l1.6-0.5c5.8-1.7,11.8-0.2,15.8,3.7
		c1.6,1.6,2.9,3.5,3.7,5.7c0.8,2.2,1,4.6,0.7,6.8c-0.7,5.5-4.5,10.4-10.1,12.7l-1.6,0.5c-1.7,0.5-3.5,0.7-5.2,0.7
		C622,266,621.6,266,621.2,266C621.3,266,621.2,266,621.2,266z"/>
</g>
<path class="st8" d="M133.1,510.3l48.9-39c2.9-2.3,6.9-2.9,10.6-1.6c7.7,2.8,16.4,1.7,23-3.5c7.6-6,10.4-16,7.9-25.2l-14.2,11.3
	c-3.9,3.1-9.7,3-13.5-0.6c-5-4.6-4.8-12.1,0-16l14.4-11.5c-8.4-4.5-18.8-4-26.4,2c-6.6,5.3-9.6,13.5-8.6,21.6c0.5,3.9-1,7.6-3.9,9.9
	l-48.9,39c-6.3-3.1-13.8-2.6-19.3,1.8c-8.4,6.7-9,19.7-0.8,28c6.2,6.3,15.8,7.7,23,3.4C132.1,525.8,134.9,517.8,133.1,510.3z
	 M108.1,519.2c-3.2-4.1-2.7-9.8,1.1-12.9c3.8-3.1,9.6-2.2,12.8,1.8c3.2,4.1,2.7,9.8-1.1,12.9C117,524.1,111.3,523.3,108.1,519.2z"/>
<g>
	<g>
		<path class="st2" d="M192.8,325.8c-38.4-17.6-44.7-55-45.8-92.8l-0.1-3.6l48-18.2l48,18.2l-0.1,3.6c-1.1,37.8-7.4,75.2-45.8,92.8
			l-2.1,1L192.8,325.8z"/>
		<path class="st9" d="M194.9,216.6l42.9,16.3c-1.2,42-9.4,73.1-42.9,88.4c-33.5-15.3-41.6-46.3-42.9-88.4L194.9,216.6 M194.9,205.9
			l-3.6,1.3l-42.9,16.3l-6.7,2.5l0.2,7.1c0.7,25.3,3.9,43.2,10.1,57.8c7.7,18.1,20.4,31,38.6,39.3l4.2,1.9l4.2-1.9
			c18.2-8.3,30.8-21.2,38.6-39.3c6.3-14.7,9.4-32.5,10.1-57.8l0.2-7.1l-6.7-2.5l-42.9-16.3L194.9,205.9L194.9,205.9z"/>
	</g>
	<g>
		<path class="st10" d="M157.5,303.9"/>
	</g>
	<g>
		<path class="st10" d="M136.3,292.3"/>
	</g>
	<line class="st10" x1="219.2" y1="252.1" x2="194.9" y2="276.1"/>
	<line class="st10" x1="181.6" y1="262.7" x2="194.9" y2="276.1"/>
</g>
</svg>
