<?xml version="1.0" encoding="utf-8"?>
<!-- Generator: Adobe Illustrator 23.0.0, SVG Export Plug-In . SVG Version: 6.00 Build 0)  -->
<svg version="1.1" id="Capa_1" xmlns="http://www.w3.org/2000/svg" xmlns:xlink="http://www.w3.org/1999/xlink" x="0px" y="0px"
	 viewBox="0 0 2000 2000" style="enable-background:new 0 0 2000 2000;" xml:space="preserve">
<style type="text/css">
	.st0{fill:#7E3C5E;}
</style>
<g>
	<path class="st0" d="M1000,1892.96c-25.97,0-51.94-6.41-75.62-19.23l-780.85-422.95c-51.29-27.79-83.15-81.28-83.15-139.61V478.94
		c0-58.33,31.86-111.82,83.15-139.61l50.27-27.22c504.81-273.44,1107.58-273.43,1612.4,0l50.25,27.22
		c51.29,27.79,83.15,81.28,83.15,139.61v832.23c0,58.33-31.86,111.82-83.15,139.61l-780.84,422.95
		C1051.95,1886.56,1025.97,1892.96,1000,1892.96z M1000,171.03c-266.47,0-532.83,65.76-775.73,197.33L174,395.58
		c-30.62,16.59-49.65,48.54-49.65,83.36v832.23c0,34.83,19.03,66.77,49.66,83.36l780.84,422.95c28.29,15.31,62.04,15.32,90.31,0
		l780.83-422.95c30.63-16.59,49.66-48.53,49.66-83.36V478.94c0-34.83-19.03-66.77-49.66-83.36l-50.25-27.22
		C1532.9,236.82,1266.4,171.03,1000,171.03z"/>
	<path class="st0" d="M1378.19,668.84L1378.19,668.84c-41.6,0-75.64-34.04-75.64-75.64v-158.7c0-41.6,34.04-75.64,75.64-75.64h0
		c41.6,0,75.64,34.04,75.64,75.64v158.7C1453.82,634.8,1419.79,668.84,1378.19,668.84z"/>
	<path class="st0" d="M773.09,516.89L773.09,516.89c-41.6,0-75.64-34.04-75.64-75.64v0c0-41.6,34.04-75.64,75.64-75.64h0
		c41.6,0,75.64,34.04,75.64,75.64v0C848.73,482.85,814.69,516.89,773.09,516.89z"/>
	<path class="st0" d="M1756.37,738.39c0-41.6-34.04-75.64-75.64-75.64c-41.6,0-75.64,34.04-75.64,75.64v81.03v232.3v53.31
		c0,41.6-34.04,75.64-75.64,75.64c-41.6,0-75.64-34.04-75.64-75.64v-62.41c0-41.6-34.04-75.64-75.64-75.64
		c-41.6,0-75.64,34.04-75.64,75.64v108.26c0,41.6-34.04,75.64-75.64,75.64c-41.6,0-75.64-34.04-75.64-75.64v-23.53V819.43V592.52
		c0-41.6-34.04-75.64-75.64-75.64c-41.6,0-75.64,34.04-75.64,75.64v226.91v226.9c0,41.6-34.04,75.64-75.64,75.64
		c-41.6,0-75.64-34.04-75.64-75.64v-17.81c0-31.8-26.02-57.81-57.81-57.81h-22.86c-38.99,0-70.6-31.61-70.6-70.6v-80.67v-72.78
		c0-38.4-27.4-72.76-65.47-77.8c-46.08-6.1-85.81,30.02-85.81,74.96v75.63v378.17c0,41.6-34.04,75.64-75.64,75.64
		c-41.6,0-75.64-34.04-75.64-75.64V819.43v-20.19c0-41.6-34.04-75.64-75.64-75.64h0c-41.6,0-75.64,34.04-75.64,75.64v20.19v418.53
		v15.08c0,27.78,15.22,52.12,37.68,65.27c5.48,4.6,11.3,8.85,17.76,12.32l651.21,349.39c31.05,16.66,68.38,16.66,99.43,0
		l651.21-349.39c34.14-18.32,55.44-53.92,55.44-92.66v-186.21c0-0.01,0-0.01,0-0.02V738.39z M848.73,1202.99
		c0,41.6-34.04,75.64-75.64,75.64c-41.6,0-75.64-34.04-75.64-75.64v0c0-41.6,34.04-75.64,75.64-75.64
		C814.69,1127.35,848.73,1161.39,848.73,1202.99L848.73,1202.99z M1453.83,1348.88c0,41.6-34.04,75.64-75.64,75.64
		c-41.6,0-75.64-34.04-75.64-75.64v0c0-41.6,34.04-75.64,75.64-75.64C1419.79,1273.24,1453.83,1307.28,1453.83,1348.88
		L1453.83,1348.88z"/>
</g>
</svg>
